<?xml version="1.0" encoding="UTF-8" standalone="no"?>
<!-- Created with Inkscape (http://www.inkscape.org/) -->

<svg
   width="210mm"
   height="210mm"
   viewBox="0 0 210 210"
   version="1.1"
   id="svg1"
   inkscape:version="1.3.2 (091e20e, 2023-11-25, custom)"
   sodipodi:docname="kjt-ball.svg"
   inkscape:export-filename="kjt-ball.png"
   inkscape:export-xdpi="123.85523"
   inkscape:export-ydpi="123.85523"
   xmlns:inkscape="http://www.inkscape.org/namespaces/inkscape"
   xmlns:sodipodi="http://sodipodi.sourceforge.net/DTD/sodipodi-0.dtd"
   xmlns="http://www.w3.org/2000/svg"
   xmlns:svg="http://www.w3.org/2000/svg"
   xmlns:rdf="http://www.w3.org/1999/02/22-rdf-syntax-ns#"
   xmlns:cc="http://creativecommons.org/ns#">
  <sodipodi:namedview
     id="namedview1"
     pagecolor="#ffffff"
     bordercolor="#000000"
     borderopacity="0.25"
     inkscape:showpageshadow="2"
     inkscape:pageopacity="0.0"
     inkscape:pagecheckerboard="0"
     inkscape:deskcolor="#d1d1d1"
     inkscape:document-units="mm"
     inkscape:zoom="0.74394518"
     inkscape:cx="554.47634"
     inkscape:cy="324.62069"
     inkscape:window-width="2560"
     inkscape:window-height="1377"
     inkscape:window-x="-8"
     inkscape:window-y="-8"
     inkscape:window-maximized="1"
     inkscape:current-layer="layer1"
     inkscape:export-bgcolor="#ffffff00" />
  <defs
     id="defs1" />
  <g
     inkscape:label="Taso 1"
     inkscape:groupmode="layer"
     id="layer1">
    <circle
       style="fill:#ffb380;fill-opacity:1;stroke:#000000;stroke-width:0;stroke-linecap:round;stroke-linejoin:round;stroke-dasharray:none;stroke-opacity:1"
       id="path5"
       cx="105"
       cy="105"
       r="85.355751" />
    <path
       style="fill:#000000;fill-opacity:1;stroke:#000000;stroke-width:0;stroke-linecap:round;stroke-linejoin:round;stroke-dasharray:none;stroke-opacity:1"
       d="m 39.935562,45.934655 0.169462,-10.253912 c 0.02249,-1.358242 -0.191937,-3.06306 0,-4.406641 0.05052,-0.353716 0.288449,-0.6632 0.338983,-1.016916 0.221465,-1.550234 -0.221464,-3.195378 0,-4.745612 0.248266,-1.737856 0.700821,-3.953266 0.338964,-5.762529 0.680768,-0.603556 -0.564946,-1.016917 -0.677947,-1.355889 -0.107129,-0.321577 0.151545,-0.71373 0,-1.016916 -0.07148,-0.142928 -0.225982,-0.225982 -0.338963,-0.338973 -0.225983,-0.451962 -0.49028,-0.886721 -0.677947,-1.355889 -0.04194,-0.104919 0,-0.225981 0,-0.338972 -0.113039,-0.338973 -0.179184,-0.69733 -0.338964,-1.016917 -0.327164,-0.654316 -0.938395,-1.407571 -1.355895,-2.033834 0.03393,-0.671523 -0.499295,-0.160313 -0.677946,-0.338972 -0.823296,-0.823297 0.100839,-0.497755 -0.677947,-1.016918 -1.024706,-0.683139 -2.954962,-1.0286225 -4.06766,-1.3558875 -1.084771,-0.319047 -5.239317,-1.86927 -6.779446,-1.355889 -1.167463,0.389149 -2.555934,3.8549115 -3.05075,4.7456105 -0.76771,1.381881 -1.059514,1.102098 -1.694876,2.372807 -0.05051,0.101068 0.07987,0.259076 0,0.338972 -0.07987,0.07989 -0.259074,-0.07989 -0.338963,0 -0.435438,0.435447 -0.846342,2.707379 -1.01691,3.389723 -0.543559,2.174208 -1.826272,4.254279 -2.372804,6.440473 -0.13191,0.527304 0.106558,1.161653 0,1.69486 -0.942358,4.711707 -0.338983,10.70163 -0.338983,15.592725 v 9.830194 c 0,1.011622 0.243444,2.415965 0,3.389725 -0.06138,0.245111 -0.303241,0.427827 -0.338982,0.677942 -0.127908,0.894844 0.177278,1.825406 0,2.711779 -0.04956,0.247753 -0.225963,0.451966 -0.338964,0.677946 -0.113039,0.564952 -0.281644,1.121577 -0.338964,1.694861 -0.290698,2.906946 0.208178,5.898828 0,8.81328 -0.105795,1.482386 -0.563974,2.924857 -0.677946,4.406639 -0.145635,1.892247 0,3.86301 0,5.762526 v 12.203017 c 0,3.002294 -0.297733,6.174914 0,9.152232 -0.218834,1.01148 0.546169,1.78941 0.677946,2.71179 0.08464,0.59256 0.180328,3.25296 0.338964,3.72869 0.05052,0.15155 0.288449,0.18738 0.338964,0.33897 0.214392,0.64315 -0.186238,1.38199 0,2.03384 0.111895,0.39172 0.549124,0.63042 0.677965,1.01692 0.10713,0.32156 -0.06653,0.68453 0,1.01692 0.09912,0.4955 0.594855,0.85745 0.677928,1.35589 0.07434,0.44581 -0.06386,0.90846 0,1.35589 0.214068,1.49842 1.108161,2.92019 1.355893,4.40663 0.08692,0.52184 -0.248686,1.87543 0,2.3728 0.414183,0.82836 1.789672,3.7919 2.711786,4.40664 0.387629,0.25843 0.919674,0.17537 1.355874,0.33898 0.473142,0.17747 0.895884,0.46884 1.355893,0.67795 2.638092,1.19913 4.9681,1.25974 7.796375,1.69486 0.694798,0.10694 2.599053,0.9415 3.389714,0.67794 2.116493,-0.70549 1.184124,-4.23033 1.694857,-5.76253 0.161075,-0.48319 0.488106,-0.48811 0.677946,-0.67795 0.25265,-0.25265 0.08635,-0.76426 0.338983,-1.01691 1.447603,-1.44762 0.04117,1.9102 1.355895,-2.03384 1.31632,-3.94898 1.881895,-10.02865 1.355874,-14.23684 0.0568,-0.8621 -0.56161,-1.55848 -0.677947,-2.3728 -0.187953,-1.31605 -0.30835,-5.884988 0,-7.118408 0.409227,-1.63689 0.161076,0.0172 0.677947,-1.01693 0.384846,-0.76966 0.408445,-1.76432 1.016929,-2.37281 0.178613,-0.17861 0.537802,-0.128667 0.677928,-0.338961 0.133244,-0.199771 0.200038,-1.216948 0.677965,-1.694856 1.634563,-1.634583 4.527059,-2.11413 6.440464,-3.389733 1.461268,-0.974173 2.202768,-3.218573 2.711786,-4.745612 0.255261,-0.765816 0.939479,-1.409235 1.355874,-2.033832 0.467099,-0.700636 0.855758,-1.74764 1.355893,-2.372807 0.157835,-0.197288 0.480653,-0.181148 0.677946,-0.33897 2.113882,-1.691103 2.132887,-2.022831 5.08459,-1.69486 1.114699,0.123847 3.467087,0.416339 4.406642,1.355889 0.178613,0.178651 0.187382,0.475817 0.338964,0.677941 0.525144,0.700184 1.644399,1.254968 2.03384,2.033837 0.101029,0.202124 -0.08387,0.468126 0,0.677941 0.151353,0.378255 0.526631,0.638663 0.677927,1.016918 0.27217,0.680398 -0.179184,1.655972 0,2.372805 0.553261,2.213024 0.182044,-1.280693 0.677966,1.694857 0.333569,2.001453 0.173466,4.083863 0.677927,6.101519 0.09874,0.395216 0.534904,0.635454 0.677947,1.016914 0.425792,1.13543 0.463039,2.62093 1.016929,3.72869 0.142966,0.28584 0.535018,0.39209 0.677928,0.67795 0.101029,0.20212 0,0.45197 0,0.67793 0.113038,0.33898 0.155166,0.71054 0.338982,1.016928 0.424,0.70667 1.176499,1.3859 1.694857,2.03382 0.473505,0.59188 0.523638,1.45835 1.016929,2.03384 0.470836,0.54931 1.218436,0.8114 1.694857,1.35589 3.759139,4.29618 -2.787653,-1.77074 1.694857,2.71179 1.374688,1.37469 1.265862,0.55791 2.372803,2.03382 2.492076,4.15346 -0.31382,0.0252 2.03384,2.3728 0.987916,0.98794 1.530388,2.60548 2.372803,3.7287 0.479376,0.63917 1.168741,1.09358 1.694857,1.69486 2.096211,2.39567 4.226524,4.8793 6.1015,7.45739 1.0972,1.50866 2.015253,3.19236 3.050749,4.74562 0.893006,1.3395 3.010815,3.9079 3.389733,5.42356 0.0549,0.21923 -0.07148,0.46355 0,0.67794 0.645877,1.93764 0.06481,-2.0492 0.677937,1.01691 0.0665,0.33239 -0.0821,0.68807 0,1.01693 0.14145,0.56541 1.01064,1.177 1.35588,1.69486 0.53496,0.80244 0.17651,0.8545 1.01691,1.69486 0.28807,0.28806 0.72884,0.38988 1.01691,0.67794 0.68258,0.68258 1.73963,2.50712 2.03384,3.38972 0.0715,0.21439 -0.0715,0.46357 0,0.67794 0.17861,0.53597 0.81855,0.82692 1.01691,1.3559 0.20231,0.53946 0.15669,1.14828 0.33898,1.69485 0.31958,0.95877 1.07825,1.74006 1.35588,2.71179 0.34479,1.20677 -0.0236,0.96965 0.67794,2.3728 0.15155,0.30319 -0.12581,0.7022 0,1.01691 0.15136,0.37827 0.51746,0.64247 0.67795,1.01693 0.36704,0.85641 0.42198,1.81588 0.67795,2.71177 0.24521,0.85825 0.87483,1.85938 1.01691,2.71178 0.134,0.80367 0.2666,10.45863 0,11.52505 -0.66142,2.64567 -3.72376,5.08459 -6.44047,5.08459 -0.79093,0 -1.71472,0.43871 -2.3728,0 -0.60199,-0.40134 -1.24287,-0.79095 -1.69484,-1.3559 -0.802055,-1.00257 0.0982,-0.83847 -0.67795,-1.35589 -2.340808,-1.56055 -5.18824,-2.33245 -7.457383,-4.06766 -1.129911,-1.01692 -2.259822,-2.03385 -3.389733,-3.05076 -0.225982,0 -0.475811,0.10103 -0.677927,0 -0.10103,-0.0505 0.101029,-0.28845 0,-0.33898 -0.214755,-0.10732 -4.780681,-0.30097 -5.08459,-0.33896 -2.173127,-0.27164 -4.29206,-0.65885 -6.440482,-1.0169 -0.334351,-0.0557 -0.777222,0.23967 -1.01691,0 -0.07987,-0.0799 0.107129,-0.30326 0,-0.33898 -0.916796,-0.30558 -8.510636,-0.0776 -9.830196,0 -2.837368,0.16699 -3.006564,0.30951 -5.08459,1.69484 -0.09398,0.0627 -0.303241,-0.10713 -0.338963,0 -0.09417,0.28248 0.06271,1.31823 0,1.69486 -0.09302,0.55766 -0.959553,6.21626 -0.677947,6.77945 0.25265,0.50532 0.76426,0.85059 1.01691,1.35589 0.43174,0.86348 0.612373,1.83523 1.01693,2.71177 0.73986,1.60305 1.73056,3.27382 2.711767,4.74563 0.581854,0.87278 2.295658,4.32947 2.711786,4.7456 3.47128,3.47128 12.779554,4.7491 17.287588,6.1015 4.420387,1.32612 8.357948,4.18 12.880927,5.08459 2.024861,0.40498 4.126193,-0.51334 6.101493,-0.67795 4.50745,-0.37562 8.8464,0.44093 13.21991,-1.01691 1.87204,-0.62402 3.68613,-1.43727 5.42355,-2.3728 1.2054,-0.64907 2.44831,-1.80376 3.7287,-2.37282 1.51775,-0.67455 3.13621,-0.98449 4.74561,-1.35588 0.80152,-0.1849 1.60259,-0.38911 2.3728,-0.67794 0.14964,-0.056 0.18224,-0.30765 0.33898,-0.33898 0.44318,-0.0886 0.99432,0.27117 1.3559,0 0.11894,-0.0892 0.33896,-2.77944 0.33896,-3.38972 0,-3.98091 -0.2337,-7.94798 -1.01691,-11.86403 -0.0496,-0.24775 -0.22598,-0.45197 -0.33898,-0.67795 -0.11304,-0.33896 -0.28024,-0.66447 -0.33897,-1.01691 -0.33728,-2.0237 0,-4.38394 0,-6.44047 0,-0.98487 0.26737,-1.38933 0.33897,-2.03384 0.20442,-1.83983 0.23145,-4.2499 0,-6.10148 -0.24791,-1.98333 -1.5919,-3.66652 -2.37281,-5.42355 -0.4549,-1.3647 -0.7663,-2.4316 -1.35589,-3.7287 -1.30728,-2.87605 -2.84141,-5.73518 -4.40662,-8.4743 -1.87271,-3.27723 -4.28223,-6.18343 -6.10152,-9.49124 -4.155,-7.55455 -1.33483,-2.78967 -3.7287,-6.77944 -1.09634,-1.82725 -2.36914,-3.55249 -3.38971,-5.42356 -0.36295,-0.66542 -0.60999,-1.39436 -1.01691,-2.03383 -0.38843,-0.61038 -0.99135,-1.06993 -1.35589,-1.69486 -1.17246,-2.00994 -1.83192,-4.45987 -3.05075,-6.44047 -0.46251,-0.75158 -1.17818,-1.31843 -1.69486,-2.03383 -0.9541,-1.32107 -1.77728,-2.73266 -2.71179,-4.06768 -1.06273,-1.51819 -2.36173,-2.86469 -3.389687,-4.40663 -2.114339,-3.171508 -0.604443,-1.748708 -3.05075,-5.084588 -0.616032,-0.84005 -1.428348,-1.52513 -2.033839,-2.3728 -3.303763,-4.62529 0.656215,-0.0326 -2.711767,-5.084593 -1.410335,-2.115502 -3.319908,-3.962933 -4.745626,-6.101502 -1.814834,-2.722272 -3.457098,-5.513406 -5.423553,-8.135333 -0.84089,-1.121198 -1.392169,-2.748068 -2.372804,-3.728697 -0.288067,-0.288071 -0.772475,-0.352029 -1.01691,-0.677942 -0.454785,-0.606374 -0.596475,-1.403172 -1.016929,-2.033836 -0.265898,-0.398867 -0.738278,-0.62683 -1.01691,-1.016918 -1.29274,-1.809827 -3.37698,-5.347146 -3.728697,-7.457387 -0.130004,-0.780173 0,-1.58187 0,-2.372807 0,-0.625312 -0.282692,-2.146413 0,-2.711779 0.142967,-0.285847 0.513516,-0.403901 0.677947,-0.677946 0.489593,-0.815999 0.129241,-1.008883 0.677946,-1.694861 3.053762,-3.817209 6.944773,-6.38967 11.186089,-8.813274 3.154315,-1.802465 6.821631,-2.639632 9.830177,-4.745614 1.805894,-1.264118 3.672863,-2.415672 5.423563,-3.728697 0.60637,-0.454776 1.39109,-0.615195 2.03381,-1.016914 1.84014,-1.150095 3.62883,-2.807808 5.76253,-3.389725 3.96204,-1.080555 8.42718,-0.241691 12.203,1.016918 1.11912,0.37304 2.25546,0.69284 3.38971,1.016916 0.51644,0.147561 1.18607,-0.169596 1.69488,0 0.92282,0.307609 2.1445,1.324738 2.71177,2.033834 0.56908,0.71134 0.85057,1.61484 1.35589,2.372807 0.42059,0.630871 2.31811,3.083482 2.71179,4.067668 0.61429,1.535787 2.26064,7.357897 2.3728,9.152251 0.17404,2.78428 0,5.680933 0,8.474305 0,3.303924 0.12676,6.570563 -0.33898,9.830194 -0.42078,2.945506 0,6.525357 0,9.491223 0,1.653993 -0.16413,3.442426 0,5.084585 0.39498,3.949755 1.38898,7.88764 1.69487,11.864034 0.16947,2.20404 -0.36353,4.59827 0,6.779448 0.53994,3.23965 1.36444,6.52605 1.69486,9.83019 0.15459,1.54547 0.44344,2.3217 0.67795,3.7287 0.18223,1.09306 0.12218,2.30566 0.33896,3.38973 0.0496,0.24773 0.28942,0.43018 0.33898,0.67793 0.18338,0.91698 -0.16012,1.62408 0.33897,2.3728 1.53027,2.29543 4.78967,3.24229 7.11841,4.40664 0.26656,0.13325 3.76182,1.13672 4.06768,0.67795 0.47731,-0.71599 0.56084,-1.64308 1.01691,-2.3728 0.29942,-0.47907 0.78313,-0.84158 1.01691,-1.3559 0.92747,-2.04039 0.45272,-2.187 1.01693,-4.06766 0.56822,-1.89413 0.86509,-1.41603 1.01691,-3.38971 0.44069,-5.72908 -0.38226,-11.55389 0,-17.287588 0.0606,-0.90896 0.22598,-1.80786 0.33898,-2.71179 0.11304,-1.01691 0.27514,-2.02957 0.33896,-3.050747 0.29545,-4.727154 -0.29544,-9.50969 0,-14.236835 0.35614,-5.698176 0.16127,0.726713 1.01691,-4.406643 0.11152,-0.668718 -0.0959,-1.362704 0,-2.033832 0.13172,-0.922381 0.49522,-1.798126 0.67795,-2.711778 0.82499,-4.124891 1.61546,-9.036174 2.03383,-13.219919 0.31003,-3.100358 0,-6.370791 0,-9.491223 0,-0.925816 -0.18261,-2.137425 0,-3.050748 0.48293,-2.414609 0.25671,0.57583 0.67795,-2.372807 0.17518,-1.226755 -0.0171,-2.142197 0.33896,-3.389725 0.29051,-1.016783 2.33562,-9.069577 3.38974,-9.491223 1.09895,-0.439585 3.61369,0 4.7456,0 h 14.91479 c 1.54491,0 5.5377,0.413915 6.77945,0 0.47937,-0.159798 0.87649,-0.518152 1.35589,-0.677944 0.21437,-0.07146 0.48992,0.125352 0.67795,0 0.21021,-0.140146 0.16031,-0.49929 0.33896,-0.677945 0.1178,-0.117881 1.78104,-1.166293 2.03382,-1.355889 0.33029,-0.247717 0.80957,-0.26323 1.01693,-0.677945 0.63831,-1.276646 0.33896,-3.028845 0.33896,-4.406639 0,-1.846662 0.36847,-4.332914 -0.33896,-6.101501 -0.17804,-0.445093 -0.67795,-0.677945 -1.01693,-1.016916 -3.18731,-3.187329 -12.3644,-3.3493715 -16.27066,-2.372808 -1.67088,0.417721 -4.10885,0 -5.76254,0 h -15.25374 -24.406 -8.4743 c -1.3034,0 -2.78394,-0.213953 -4.06768,0 -1.59941,0.26657 -3.08832,0.338974 -4.74561,0.338974 h -12.203 c -1.27625,0 -5.737214,-0.347397 -6.77942,0 -0.590336,0.196782 -1.209934,1.306922 -1.694856,1.69486 -2.164664,1.731731 -3.012111,3.103438 -4.745607,5.084584 -1.130769,1.2923 -2.699014,2.355785 -3.728696,3.728696 -0.303184,0.404248 -0.384237,0.944701 -0.677947,1.35589 -1.623469,2.272862 -4.128411,3.850175 -5.423553,6.440472 -0.654938,1.30986 -0.901584,2.798422 -1.694857,4.067666 -2.869983,4.591948 0.456444,-1.212713 -1.694876,2.372807 -0.538182,0.896983 -0.306863,1.115939 -1.355874,2.033836 -0.495845,0.43385 -1.199049,0.583063 -1.694875,1.016912 -1.136011,0.994011 -1.657667,2.674583 -2.711767,3.728697 -0.882294,0.882281 -2.112757,1.283443 -3.05075,2.033835 -0.197294,0.157835 -0.160313,0.49929 -0.338983,0.677943 -1.221695,1.221707 -3.319145,1.516934 -4.745607,2.372807 -0.714183,0.428508 -1.208733,1.669233 -1.694856,2.033832 -0.606388,0.45478 -1.417064,0.576358 -2.03384,1.016918 -1.085973,0.775699 -1.965902,1.98854 -3.05075,2.711776 -0.420435,0.280297 -0.927394,0.410131 -1.355893,0.677949 -1.718513,1.074076 -3.338017,2.341778 -5.084589,3.389719 -0.201678,0.121007 -1.222439,0.5445 -1.355874,0.677947 -0.950727,0.950726 1.424421,-0.380096 -0.338983,0.677942 -0.433302,0.25998 -0.967692,0.354454 -1.355893,0.677947 -0.312963,0.260807 -0.364965,0.756107 -0.677947,1.016918 -0.893673,0.744734 -2.08281,1.049569 -3.050749,1.69486 -0.573296,0.382205 -1.118626,1.010149 -1.694857,1.35589 z"
       id="path4"
       sodipodi:nodetypes="cssssccccccccscsssssscccssccsccccsscsscscccccsssccsssccccscsccsssscsssscscscssscssscscsssssccccsssscscsscsscsssssccscscscccscsssssssssssscsssscsssscsssssssssssscssssssssssscssssssssssssscsccssssccssssssscssscssscccssssssssssscssccsssssssssssssssscsssssscsssscc" />
  </g>
  <metadata
     id="metadata1">
    <rdf:RDF>
      <cc:Work
         rdf:about="" />
    </rdf:RDF>
  </metadata>
</svg>
